{
	"asset":{
		"generator":"Khronos glTF Blender I/O v5.0.21",
		"version":"2.0"
	},
	"scene":0,
	"scenes":[
		{
			"name":"Scene",
			"nodes":[
				4
			]
		}
	],
	"nodes":[
		{
			"mesh":0,
			"name":"Object_12"
		},
		{
			"children":[
				0
			],
			"name":"Icosphere.002_4"
		},
		{
			"children":[
				1
			],
			"name":"GLTF_SceneRootNode",
			"rotation":[
				0.70710688829422,
				0,
				0,
				0.7071066498756409
			]
		},
		{
			"children":[
				2
			],
			"name":"root"
		},
		{
			"children":[
				3
			],
			"name":"Sketchfab_model",
			"rotation":[
				-0.70710688829422,
				0,
				0,
				0.7071066498756409
			]
		}
	],
	"materials":[
		{
			"doubleSided":true,
			"name":"Material.005",
			"pbrMetallicRoughness":{
				"baseColorFactor":[
					0.800000011920929,
					0.800000011920929,
					0.800000011920929,
					1
				],
				"roughnessFactor":0.5
			}
		}
	],
	"meshes":[
		{
			"name":"Object_4",
			"primitives":[
				{
					"attributes":{
						"POSITION":0,
						"NORMAL":1,
						"TEXCOORD_0":2
					},
					"indices":3,
					"material":0
				}
			]
		}
	],
	"accessors":[
		{
			"bufferView":0,
			"componentType":5126,
			"count":13058,
			"max":[
				1.0609993934631348,
				1.063391923904419,
				1.0612660646438599
			],
			"min":[
				-1.062232255935669,
				-1.0632262229919434,
				-1.0610955953598022
			],
			"type":"VEC3"
		},
		{
			"bufferView":1,
			"componentType":5126,
			"count":13058,
			"type":"VEC3"
		},
		{
			"bufferView":2,
			"componentType":5126,
			"count":13058,
			"type":"VEC2"
		},
		{
			"bufferView":3,
			"componentType":5123,
			"count":24000,
			"type":"SCALAR"
		}
	],
	"bufferViews":[
		{
			"buffer":0,
			"byteLength":156696,
			"byteOffset":0,
			"target":34962
		},
		{
			"buffer":0,
			"byteLength":156696,
			"byteOffset":156696,
			"target":34962
		},
		{
			"buffer":0,
			"byteLength":104464,
			"byteOffset":313392,
			"target":34962
		},
		{
			"buffer":0,
			"byteLength":48000,
			"byteOffset":417856,
			"target":34963
		}
	],
	"buffers":[
		{
			"byteLength":465856,
			"uri":"scene.bin"
		}
	]
}
