<?xml version="1.0" encoding="UTF-8"?>
<svg id="Layer_1" data-name="Layer 1" xmlns="http://www.w3.org/2000/svg" viewBox="0 0 1500 1500">
  <defs>
    <style>
      .cls-1 {
        fill: #fff;
      }
    </style>
  </defs>
  <rect class="cls-1" width="1500" height="1500"/>
  <g>
    <path d="M189.4,394.69h473.75v78.96h-394.79v236.88h355.31v78.96h-355.31v276.36h-78.96V394.69Z"/>
    <path d="M797.38,394.69h78.96v486.36h355.32v-486.36h78.96v671.15h-78.96v-105.83h-355.32v105.83h-78.96V394.69Z"/>
  </g>
  <polygon points="1036.04 488.04 915.92 557.39 915.92 418.69 1036.04 488.04"/>
  <polygon points="1054 509.81 1104.92 551.39 1003.07 551.39 1054 509.81"/>
  <polygon points="1054 846.16 963.91 741.66 998.32 572.59 1109.68 572.59 1144.09 741.66 1054 846.16"/>
  <polygon points="1071.96 488.04 1192.08 418.69 1192.08 557.39 1071.96 488.04"/>
</svg>