<?xml version="1.0" encoding="UTF-8"?>
<svg id="Layer_1" data-name="Layer 1" xmlns="http://www.w3.org/2000/svg" viewBox="0 0 1329.75 211.77">
  <defs>
    <style>
      .cls-1 {
        fill: #fff;
      }
    </style>
  </defs>
  <path class="cls-1" d="M0,0h149.48v24.91H24.91v74.74h112.11v24.91H24.91v87.2H0V0Z"/>
  <path class="cls-1" d="M191.83,0h24.91v87.2h112.11V0h24.91v211.77h-24.91v-99.66h-112.11v99.66h-24.91V0Z"/>
  <path class="cls-1" d="M407.96,0h149.48v24.91h-124.57v62.28h112.11v24.91h-112.11v74.74h124.57v24.91h-149.48V0Z"/>
  <path class="cls-1" d="M604.46,0h24.91v186.85h124.57v24.91h-149.48V0Z"/>
  <path class="cls-1" d="M790.38,0h124.57v24.91h-99.65v87.2h99.65v24.91h-99.65v74.74h-24.91V0ZM939.86,24.91v87.2h-24.91V24.91h24.91Z"/>
  <path class="cls-1" d="M983.76,0h149.48v24.91h-124.57v62.28h112.11v24.91h-112.11v74.74h124.57v24.91h-149.48V0Z"/>
  <path class="cls-1" d="M1180.27,0h124.57v24.91h-99.65v74.74h99.65v24.91h-24.91v24.91h-24.91v-24.91h-49.83v87.2h-24.91V0ZM1279.92,149.48h24.91v37.37h-24.91v-37.37ZM1329.75,24.91v74.74h-24.91V24.91h24.91ZM1304.84,186.85h24.91v24.91h-24.91v-24.91Z"/>
</svg>