<svg width="60" height="60" viewBox="0 0 60 60" fill="none" xmlns="http://www.w3.org/2000/svg">
<path fill-rule="evenodd" clip-rule="evenodd" d="M42.598 39.061C45.6785 35.21 47.5205 30.3252 47.5205 25.0102C47.5205 12.5782 37.4422 2.5 25.0102 2.5C12.5782 2.5 2.5 12.5782 2.5 25.0102C2.5 37.4422 12.5782 47.5205 25.0102 47.5205C30.3252 47.5205 35.21 45.6785 39.061 42.598L53.2303 56.7675C54.207 57.7443 55.7908 57.7443 56.7675 56.7675C57.7443 55.7908 57.7443 54.207 56.7675 53.2303L42.598 39.061ZM25.0102 42.5432C15.327 42.5432 7.47717 34.6935 7.47717 25.0102C7.47717 15.327 15.327 7.47717 25.0102 7.47717C34.6935 7.47717 42.5432 15.327 42.5432 25.0102C42.5432 34.6935 34.6935 42.5432 25.0102 42.5432Z" fill="#39375c"/>
</svg>