{
	"asset":{
		"generator":"Khronos glTF Blender I/O v5.0.21",
		"version":"2.0"
	},
	"scene":0,
	"scenes":[
		{
			"name":"Scene",
			"nodes":[
				0,
				1,
				2,
				3,
				4,
				5,
				6,
				7,
				8,
				9
			]
		}
	],
	"nodes":[
		{
			"mesh":0,
			"name":"Cube",
			"translation":[
				-0.3465142250061035,
				1.0439397096633911,
				8.53209114074707
			]
		},
		{
			"mesh":1,
			"name":"Plane",
			"scale":[
				15.133763313293457,
				15.133763313293457,
				15.133763313293457
			]
		},
		{
			"mesh":2,
			"name":"Cube.001",
			"scale":[
				10.782272338867188,
				3.7649495601654053,
				6.012157917022705
			],
			"translation":[
				0,
				-2.81341552734375,
				-2.3598008155822754
			]
		},
		{
			"mesh":3,
			"name":"Cube.002",
			"rotation":[
				0,
				-0.7009970545768738,
				0,
				0.7131641507148743
			],
			"scale":[
				10.782271385192871,
				3.7649495601654053,
				6.012157440185547
			],
			"translation":[
				-11.062705993652344,
				0.5787986516952515,
				8.394110679626465
			]
		},
		{
			"mesh":4,
			"name":"Cube.003",
			"rotation":[
				0,
				-0.7009970545768738,
				0,
				0.7131641507148743
			],
			"scale":[
				10.782271385192871,
				3.7649495601654053,
				6.012157440185547
			],
			"translation":[
				-14.140247344970703,
				2.0948486328125,
				-5.9430694580078125
			]
		},
		{
			"mesh":5,
			"name":"Cube.004",
			"rotation":[
				0,
				-0.7009970545768738,
				0,
				0.7131641507148743
			],
			"scale":[
				10.782271385192871,
				3.7649495601654053,
				6.012157440185547
			],
			"translation":[
				-15.846015930175781,
				5.494848251342773,
				9.976615905761719
			]
		},
		{
			"mesh":6,
			"name":"Cube.005",
			"rotation":[
				0,
				-0.7009970545768738,
				0,
				0.7131641507148743
			],
			"scale":[
				4.1010541915893555,
				3.7649495601654053,
				6.0113959312438965
			],
			"translation":[
				-4.568879127502441,
				2.0948486328125,
				18.73790740966797
			]
		},
		{
			"mesh":7,
			"name":"Cube.006",
			"rotation":[
				0,
				-0.7009970545768738,
				0,
				0.7131641507148743
			],
			"scale":[
				4.1010541915893555,
				3.7649495601654053,
				6.0113959312438965
			],
			"translation":[
				1.7578473091125488,
				3.147097110748291,
				19.085411071777344
			]
		},
		{
			"mesh":8,
			"name":"Cube.007",
			"rotation":[
				0,
				-0.7009970545768738,
				0,
				0.7131641507148743
			],
			"scale":[
				10.782271385192871,
				3.7649495601654053,
				6.012157440185547
			],
			"translation":[
				-18.134035110473633,
				8.663743019104004,
				-8.042705535888672
			]
		},
		{
			"mesh":9,
			"name":"Cube.008",
			"rotation":[
				0,
				-0.7009970545768738,
				0,
				0.7131641507148743
			],
			"scale":[
				4.1010541915893555,
				3.7649495601654053,
				6.0113959312438965
			],
			"translation":[
				-4.568879127502441,
				5.426705360412598,
				20.668087005615234
			]
		}
	],
	"animations":[
		{
			"channels":[
				{
					"sampler":0,
					"target":{
						"node":0,
						"path":"translation"
					}
				},
				{
					"sampler":1,
					"target":{
						"node":0,
						"path":"rotation"
					}
				},
				{
					"sampler":2,
					"target":{
						"node":0,
						"path":"scale"
					}
				}
			],
			"name":"CubeAction",
			"samplers":[
				{
					"input":33,
					"interpolation":"LINEAR",
					"output":34
				},
				{
					"input":33,
					"interpolation":"LINEAR",
					"output":35
				},
				{
					"input":36,
					"interpolation":"STEP",
					"output":37
				}
			]
		},
		{
			"channels":[
				{
					"sampler":0,
					"target":{
						"node":2,
						"path":"translation"
					}
				},
				{
					"sampler":1,
					"target":{
						"node":2,
						"path":"rotation"
					}
				},
				{
					"sampler":2,
					"target":{
						"node":2,
						"path":"scale"
					}
				}
			],
			"name":"Cube.001Action",
			"samplers":[
				{
					"input":38,
					"interpolation":"LINEAR",
					"output":39
				},
				{
					"input":38,
					"interpolation":"LINEAR",
					"output":40
				},
				{
					"input":38,
					"interpolation":"LINEAR",
					"output":41
				}
			]
		}
	],
	"materials":[
		{
			"doubleSided":true,
			"name":"Material.002",
			"pbrMetallicRoughness":{
				"baseColorFactor":[
					0.8000074625015259,
					0.018572326749563217,
					0.00892721302807331,
					1
				],
				"metallicFactor":0.4909090995788574,
				"roughnessFactor":0.04090908169746399
			}
		},
		{
			"doubleSided":true,
			"name":"Material.003",
			"pbrMetallicRoughness":{
				"baseColorFactor":[
					0.04091520607471466,
					0.0382043793797493,
					0.10702312737703323,
					1
				],
				"metallicFactor":0,
				"roughnessFactor":0.5
			}
		},
		{
			"doubleSided":true,
			"name":"Material.004",
			"pbrMetallicRoughness":{
				"baseColorFactor":[
					0.9215819835662842,
					0.3613068461418152,
					0.02121901698410511,
					1
				],
				"metallicFactor":0,
				"roughnessFactor":0.5
			}
		},
		{
			"doubleSided":true,
			"name":"Material.001",
			"pbrMetallicRoughness":{
				"baseColorFactor":[
					0.32294395565986633,
					0.051411766558885574,
					0.01783166080713272,
					1
				],
				"metallicFactor":0,
				"roughnessFactor":0.5
			}
		}
	],
	"meshes":[
		{
			"name":"Cube.001",
			"primitives":[
				{
					"attributes":{
						"POSITION":0,
						"NORMAL":1,
						"TEXCOORD_0":2
					},
					"indices":3,
					"material":0
				}
			]
		},
		{
			"name":"Plane",
			"primitives":[
				{
					"attributes":{
						"POSITION":4,
						"NORMAL":5,
						"TEXCOORD_0":6
					},
					"indices":7,
					"material":1
				}
			]
		},
		{
			"name":"Cube.002",
			"primitives":[
				{
					"attributes":{
						"POSITION":8,
						"NORMAL":9,
						"TEXCOORD_0":10
					},
					"indices":11,
					"material":2
				}
			]
		},
		{
			"name":"Cube.003",
			"primitives":[
				{
					"attributes":{
						"POSITION":12,
						"NORMAL":13,
						"TEXCOORD_0":14
					},
					"indices":11,
					"material":2
				}
			]
		},
		{
			"name":"Cube.004",
			"primitives":[
				{
					"attributes":{
						"POSITION":15,
						"NORMAL":16,
						"TEXCOORD_0":17
					},
					"indices":11,
					"material":1
				}
			]
		},
		{
			"name":"Cube.005",
			"primitives":[
				{
					"attributes":{
						"POSITION":18,
						"NORMAL":19,
						"TEXCOORD_0":20
					},
					"indices":11,
					"material":3
				}
			]
		},
		{
			"name":"Cube.006",
			"primitives":[
				{
					"attributes":{
						"POSITION":21,
						"NORMAL":22,
						"TEXCOORD_0":23
					},
					"indices":11
				}
			]
		},
		{
			"name":"Cube.007",
			"primitives":[
				{
					"attributes":{
						"POSITION":24,
						"NORMAL":25,
						"TEXCOORD_0":26
					},
					"indices":11
				}
			]
		},
		{
			"name":"Cube.008",
			"primitives":[
				{
					"attributes":{
						"POSITION":27,
						"NORMAL":28,
						"TEXCOORD_0":29
					},
					"indices":11,
					"material":3
				}
			]
		},
		{
			"name":"Cube.009",
			"primitives":[
				{
					"attributes":{
						"POSITION":30,
						"NORMAL":31,
						"TEXCOORD_0":32
					},
					"indices":11
				}
			]
		}
	],
	"accessors":[
		{
			"bufferView":0,
			"componentType":5126,
			"count":600,
			"max":[
				1,
				1,
				1
			],
			"min":[
				-1,
				-1,
				-1
			],
			"type":"VEC3"
		},
		{
			"bufferView":1,
			"componentType":5126,
			"count":600,
			"type":"VEC3"
		},
		{
			"bufferView":2,
			"componentType":5126,
			"count":600,
			"type":"VEC2"
		},
		{
			"bufferView":3,
			"componentType":5123,
			"count":900,
			"type":"SCALAR"
		},
		{
			"bufferView":4,
			"componentType":5126,
			"count":4,
			"max":[
				1,
				0,
				1
			],
			"min":[
				-1,
				0,
				-1
			],
			"type":"VEC3"
		},
		{
			"bufferView":5,
			"componentType":5126,
			"count":4,
			"type":"VEC3"
		},
		{
			"bufferView":6,
			"componentType":5126,
			"count":4,
			"type":"VEC2"
		},
		{
			"bufferView":7,
			"componentType":5123,
			"count":6,
			"type":"SCALAR"
		},
		{
			"bufferView":8,
			"componentType":5126,
			"count":24,
			"max":[
				1,
				1,
				1
			],
			"min":[
				-1,
				-1,
				-1
			],
			"type":"VEC3"
		},
		{
			"bufferView":9,
			"componentType":5126,
			"count":24,
			"type":"VEC3"
		},
		{
			"bufferView":10,
			"componentType":5126,
			"count":24,
			"type":"VEC2"
		},
		{
			"bufferView":11,
			"componentType":5123,
			"count":36,
			"type":"SCALAR"
		},
		{
			"bufferView":12,
			"componentType":5126,
			"count":24,
			"max":[
				1,
				1,
				1
			],
			"min":[
				-1,
				-1,
				-1
			],
			"type":"VEC3"
		},
		{
			"bufferView":13,
			"componentType":5126,
			"count":24,
			"type":"VEC3"
		},
		{
			"bufferView":14,
			"componentType":5126,
			"count":24,
			"type":"VEC2"
		},
		{
			"bufferView":15,
			"componentType":5126,
			"count":24,
			"max":[
				1,
				1,
				1
			],
			"min":[
				-1,
				-1,
				-1
			],
			"type":"VEC3"
		},
		{
			"bufferView":16,
			"componentType":5126,
			"count":24,
			"type":"VEC3"
		},
		{
			"bufferView":17,
			"componentType":5126,
			"count":24,
			"type":"VEC2"
		},
		{
			"bufferView":18,
			"componentType":5126,
			"count":24,
			"max":[
				1,
				1,
				1
			],
			"min":[
				-1,
				-1,
				-1
			],
			"type":"VEC3"
		},
		{
			"bufferView":19,
			"componentType":5126,
			"count":24,
			"type":"VEC3"
		},
		{
			"bufferView":20,
			"componentType":5126,
			"count":24,
			"type":"VEC2"
		},
		{
			"bufferView":21,
			"componentType":5126,
			"count":24,
			"max":[
				1,
				1,
				1
			],
			"min":[
				-1,
				-1,
				-1
			],
			"type":"VEC3"
		},
		{
			"bufferView":22,
			"componentType":5126,
			"count":24,
			"type":"VEC3"
		},
		{
			"bufferView":23,
			"componentType":5126,
			"count":24,
			"type":"VEC2"
		},
		{
			"bufferView":24,
			"componentType":5126,
			"count":24,
			"max":[
				1,
				1,
				1
			],
			"min":[
				-1,
				-1,
				-1
			],
			"type":"VEC3"
		},
		{
			"bufferView":25,
			"componentType":5126,
			"count":24,
			"type":"VEC3"
		},
		{
			"bufferView":26,
			"componentType":5126,
			"count":24,
			"type":"VEC2"
		},
		{
			"bufferView":27,
			"componentType":5126,
			"count":24,
			"max":[
				1,
				1,
				1
			],
			"min":[
				-1,
				-1,
				-1
			],
			"type":"VEC3"
		},
		{
			"bufferView":28,
			"componentType":5126,
			"count":24,
			"type":"VEC3"
		},
		{
			"bufferView":29,
			"componentType":5126,
			"count":24,
			"type":"VEC2"
		},
		{
			"bufferView":30,
			"componentType":5126,
			"count":24,
			"max":[
				1,
				1,
				1
			],
			"min":[
				-1,
				-1,
				-1
			],
			"type":"VEC3"
		},
		{
			"bufferView":31,
			"componentType":5126,
			"count":24,
			"type":"VEC3"
		},
		{
			"bufferView":32,
			"componentType":5126,
			"count":24,
			"type":"VEC2"
		},
		{
			"bufferView":33,
			"componentType":5126,
			"count":83,
			"max":[
				3.4583333333333335
			],
			"min":[
				0.041666666666666664
			],
			"type":"SCALAR"
		},
		{
			"bufferView":34,
			"componentType":5126,
			"count":83,
			"type":"VEC3"
		},
		{
			"bufferView":35,
			"componentType":5126,
			"count":83,
			"type":"VEC4"
		},
		{
			"bufferView":36,
			"componentType":5126,
			"count":2,
			"max":[
				3.4583333333333335
			],
			"min":[
				0.041666666666666664
			],
			"type":"SCALAR"
		},
		{
			"bufferView":37,
			"componentType":5126,
			"count":2,
			"type":"VEC3"
		},
		{
			"bufferView":38,
			"componentType":5126,
			"count":1,
			"max":[
				2.25
			],
			"min":[
				2.25
			],
			"type":"SCALAR"
		},
		{
			"bufferView":39,
			"componentType":5126,
			"count":1,
			"type":"VEC3"
		},
		{
			"bufferView":40,
			"componentType":5126,
			"count":1,
			"type":"VEC4"
		},
		{
			"bufferView":41,
			"componentType":5126,
			"count":1,
			"type":"VEC3"
		}
	],
	"bufferViews":[
		{
			"buffer":0,
			"byteLength":7200,
			"byteOffset":0,
			"target":34962
		},
		{
			"buffer":0,
			"byteLength":7200,
			"byteOffset":7200,
			"target":34962
		},
		{
			"buffer":0,
			"byteLength":4800,
			"byteOffset":14400,
			"target":34962
		},
		{
			"buffer":0,
			"byteLength":1800,
			"byteOffset":19200,
			"target":34963
		},
		{
			"buffer":0,
			"byteLength":48,
			"byteOffset":21000,
			"target":34962
		},
		{
			"buffer":0,
			"byteLength":48,
			"byteOffset":21048,
			"target":34962
		},
		{
			"buffer":0,
			"byteLength":32,
			"byteOffset":21096,
			"target":34962
		},
		{
			"buffer":0,
			"byteLength":12,
			"byteOffset":21128,
			"target":34963
		},
		{
			"buffer":0,
			"byteLength":288,
			"byteOffset":21140,
			"target":34962
		},
		{
			"buffer":0,
			"byteLength":288,
			"byteOffset":21428,
			"target":34962
		},
		{
			"buffer":0,
			"byteLength":192,
			"byteOffset":21716,
			"target":34962
		},
		{
			"buffer":0,
			"byteLength":72,
			"byteOffset":21908,
			"target":34963
		},
		{
			"buffer":0,
			"byteLength":288,
			"byteOffset":21980,
			"target":34962
		},
		{
			"buffer":0,
			"byteLength":288,
			"byteOffset":22268,
			"target":34962
		},
		{
			"buffer":0,
			"byteLength":192,
			"byteOffset":22556,
			"target":34962
		},
		{
			"buffer":0,
			"byteLength":288,
			"byteOffset":22748,
			"target":34962
		},
		{
			"buffer":0,
			"byteLength":288,
			"byteOffset":23036,
			"target":34962
		},
		{
			"buffer":0,
			"byteLength":192,
			"byteOffset":23324,
			"target":34962
		},
		{
			"buffer":0,
			"byteLength":288,
			"byteOffset":23516,
			"target":34962
		},
		{
			"buffer":0,
			"byteLength":288,
			"byteOffset":23804,
			"target":34962
		},
		{
			"buffer":0,
			"byteLength":192,
			"byteOffset":24092,
			"target":34962
		},
		{
			"buffer":0,
			"byteLength":288,
			"byteOffset":24284,
			"target":34962
		},
		{
			"buffer":0,
			"byteLength":288,
			"byteOffset":24572,
			"target":34962
		},
		{
			"buffer":0,
			"byteLength":192,
			"byteOffset":24860,
			"target":34962
		},
		{
			"buffer":0,
			"byteLength":288,
			"byteOffset":25052,
			"target":34962
		},
		{
			"buffer":0,
			"byteLength":288,
			"byteOffset":25340,
			"target":34962
		},
		{
			"buffer":0,
			"byteLength":192,
			"byteOffset":25628,
			"target":34962
		},
		{
			"buffer":0,
			"byteLength":288,
			"byteOffset":25820,
			"target":34962
		},
		{
			"buffer":0,
			"byteLength":288,
			"byteOffset":26108,
			"target":34962
		},
		{
			"buffer":0,
			"byteLength":192,
			"byteOffset":26396,
			"target":34962
		},
		{
			"buffer":0,
			"byteLength":288,
			"byteOffset":26588,
			"target":34962
		},
		{
			"buffer":0,
			"byteLength":288,
			"byteOffset":26876,
			"target":34962
		},
		{
			"buffer":0,
			"byteLength":192,
			"byteOffset":27164,
			"target":34962
		},
		{
			"buffer":0,
			"byteLength":332,
			"byteOffset":27356
		},
		{
			"buffer":0,
			"byteLength":996,
			"byteOffset":27688
		},
		{
			"buffer":0,
			"byteLength":1328,
			"byteOffset":28684
		},
		{
			"buffer":0,
			"byteLength":8,
			"byteOffset":30012
		},
		{
			"buffer":0,
			"byteLength":24,
			"byteOffset":30020
		},
		{
			"buffer":0,
			"byteLength":4,
			"byteOffset":30044
		},
		{
			"buffer":0,
			"byteLength":12,
			"byteOffset":30048
		},
		{
			"buffer":0,
			"byteLength":16,
			"byteOffset":30060
		},
		{
			"buffer":0,
			"byteLength":12,
			"byteOffset":30076
		}
	],
	"buffers":[
		{
			"byteLength":30088,
			"uri":"Cubescene.bin"
		}
	]
}
