{
	"asset":{
		"generator":"Khronos glTF Blender I/O v5.0.21",
		"version":"2.0"
	},
	"scene":0,
	"scenes":[
		{
			"name":"Scene",
			"nodes":[
				0
			]
		}
	],
	"nodes":[
		{
			"mesh":0,
			"name":"Sphere"
		}
	],
	"materials":[
		{
			"doubleSided":true,
			"name":"Main",
			"pbrMetallicRoughness":{
				"baseColorFactor":[
					0.1309344619512558,
					0.1309344619512558,
					0.1309344619512558,
					1
				],
				"metallicFactor":0.5363636016845703,
				"roughnessFactor":0.22272726893424988
			}
		}
	],
	"meshes":[
		{
			"name":"Sphere.001",
			"primitives":[
				{
					"attributes":{
						"POSITION":0,
						"NORMAL":1,
						"TEXCOORD_0":2
					},
					"indices":3,
					"material":0
				}
			]
		}
	],
	"accessors":[
		{
			"bufferView":0,
			"componentType":5126,
			"count":364544,
			"max":[
				1.4566197395324707,
				1.4033888578414917,
				1.4566195011138916
			],
			"min":[
				-1.4566195011138916,
				-1.4033886194229126,
				-1.456619381904602
			],
			"type":"VEC3"
		},
		{
			"bufferView":1,
			"componentType":5126,
			"count":364544,
			"type":"VEC3"
		},
		{
			"bufferView":2,
			"componentType":5126,
			"count":364544,
			"type":"VEC2"
		},
		{
			"bufferView":3,
			"componentType":5125,
			"count":546816,
			"type":"SCALAR"
		}
	],
	"bufferViews":[
		{
			"buffer":0,
			"byteLength":4374528,
			"byteOffset":0,
			"target":34962
		},
		{
			"buffer":0,
			"byteLength":4374528,
			"byteOffset":4374528,
			"target":34962
		},
		{
			"buffer":0,
			"byteLength":2916352,
			"byteOffset":8749056,
			"target":34962
		},
		{
			"buffer":0,
			"byteLength":2187264,
			"byteOffset":11665408,
			"target":34963
		}
	],
	"buffers":[
		{
			"byteLength":13852672,
			"uri":"sphereobj.bin"
		}
	]
}
