{
	"asset":{
		"generator":"Khronos glTF Blender I/O v5.0.21",
		"version":"2.0"
	},
	"extensionsUsed":[
		"KHR_materials_transmission"
	],
	"scene":0,
	"scenes":[
		{
			"name":"Scene",
			"nodes":[
				0
			]
		}
	],
	"nodes":[
		{
			"mesh":0,
			"name":"Sphere"
		}
	],
	"materials":[
		{
			"doubleSided":true,
			"extensions":{
				"KHR_materials_transmission":{
					"transmissionFactor":0.6272727251052856
				}
			},
			"name":"Material.005",
			"pbrMetallicRoughness":{
				"metallicFactor":0,
				"roughnessFactor":0.25
			}
		}
	],
	"meshes":[
		{
			"name":"Sphere",
			"primitives":[
				{
					"attributes":{
						"POSITION":0,
						"NORMAL":1,
						"TEXCOORD_0":2
					},
					"indices":3,
					"material":0
				}
			]
		}
	],
	"accessors":[
		{
			"bufferView":0,
			"componentType":5126,
			"count":23322733,
			"max":[
				1.667829990386963,
				1.6103109121322632,
				1.6678297519683838
			],
			"min":[
				-1.6678295135498047,
				-1.6103107929229736,
				-1.6678298711776733
			],
			"type":"VEC3"
		},
		{
			"bufferView":1,
			"componentType":5126,
			"count":23322733,
			"type":"VEC3"
		},
		{
			"bufferView":2,
			"componentType":5126,
			"count":23322733,
			"type":"VEC2"
		},
		{
			"bufferView":3,
			"componentType":5125,
			"count":34996224,
			"type":"SCALAR"
		}
	],
	"bufferViews":[
		{
			"buffer":0,
			"byteLength":279872796,
			"byteOffset":0,
			"target":34962
		},
		{
			"buffer":0,
			"byteLength":279872796,
			"byteOffset":279872796,
			"target":34962
		},
		{
			"buffer":0,
			"byteLength":186581864,
			"byteOffset":559745592,
			"target":34962
		},
		{
			"buffer":0,
			"byteLength":139984896,
			"byteOffset":746327456,
			"target":34963
		}
	],
	"buffers":[
		{
			"byteLength":886312352,
			"uri":"sphereobj.bin"
		}
	]
}
