{
	"asset":{
		"generator":"Khronos glTF Blender I/O v5.0.21",
		"version":"2.0"
	},
	"scene":0,
	"scenes":[
		{
			"name":"Scene",
			"nodes":[
				0
			]
		}
	],
	"nodes":[
		{
			"mesh":0,
			"name":"Sphere"
		}
	],
	"materials":[
		{
			"doubleSided":true,
			"name":"Main",
			"pbrMetallicRoughness":{
				"baseColorFactor":[
					0.1309344619512558,
					0.1309344619512558,
					0.1309344619512558,
					1
				],
				"metallicFactor":0.5363636016845703,
				"roughnessFactor":0.22272726893424988
			}
		}
	],
	"meshes":[
		{
			"name":"Sphere.001",
			"primitives":[
				{
					"attributes":{
						"POSITION":0,
						"NORMAL":1,
						"TEXCOORD_0":2
					},
					"indices":3,
					"material":0
				}
			]
		}
	],
	"accessors":[
		{
			"bufferView":0,
			"componentType":5126,
			"count":182272,
			"max":[
				1.4564284086227417,
				1.403100609779358,
				1.456428050994873
			],
			"min":[
				-1.456428050994873,
				-1.4031004905700684,
				-1.4564279317855835
			],
			"type":"VEC3"
		},
		{
			"bufferView":1,
			"componentType":5126,
			"count":182272,
			"type":"VEC3"
		},
		{
			"bufferView":2,
			"componentType":5126,
			"count":182272,
			"type":"VEC2"
		},
		{
			"bufferView":3,
			"componentType":5125,
			"count":273408,
			"type":"SCALAR"
		}
	],
	"bufferViews":[
		{
			"buffer":0,
			"byteLength":2187264,
			"byteOffset":0,
			"target":34962
		},
		{
			"buffer":0,
			"byteLength":2187264,
			"byteOffset":2187264,
			"target":34962
		},
		{
			"buffer":0,
			"byteLength":1458176,
			"byteOffset":4374528,
			"target":34962
		},
		{
			"buffer":0,
			"byteLength":1093632,
			"byteOffset":5832704,
			"target":34963
		}
	],
	"buffers":[
		{
			"byteLength":6926336,
			"uri":"sphereobj.bin"
		}
	]
}
